<svg preserveAspectRatio="none" overflow="visible" style="display: block;" width="12.4051" height="12.4051" viewBox="0 0 12.4051 12.4051" fill="none" xmlns="http://www.w3.org/2000/svg">
<g id="Group">
<path id="Vector" d="M4.34177 0.620253H1.86076C1.17565 0.620253 0.620253 1.17565 0.620253 1.86076V4.34177C0.620253 5.02688 1.17565 5.58228 1.86076 5.58228H4.34177C5.02688 5.58228 5.58228 5.02688 5.58228 4.34177V1.86076C5.58228 1.17565 5.02688 0.620253 4.34177 0.620253Z" stroke="white" stroke-width="1.24051" stroke-linecap="round" stroke-linejoin="round"/>
<path id="Vector_2" d="M3.10127 5.58228V8.06329C3.10127 8.39229 3.23196 8.70782 3.4646 8.94046C3.69724 9.1731 4.01277 9.3038 4.34177 9.3038H6.82278" stroke="white" stroke-width="1.24051" stroke-linecap="round" stroke-linejoin="round"/>
<path id="Vector_3" d="M10.5443 6.82278H8.06329C7.37818 6.82278 6.82278 7.37818 6.82278 8.06329V10.5443C6.82278 11.2294 7.37818 11.7848 8.06329 11.7848H10.5443C11.2294 11.7848 11.7848 11.2294 11.7848 10.5443V8.06329C11.7848 7.37818 11.2294 6.82278 10.5443 6.82278Z" stroke="white" stroke-width="1.24051" stroke-linecap="round" stroke-linejoin="round"/>
</g>
</svg>
